<svg width="118" height="22" viewBox="0 0 118 22" fill="none" xmlns="http://www.w3.org/2000/svg">
<path d="M13.8227 2.39979C14.8551 1.34425 16.2919 0.688294 17.8803 0.688294C19.992 0.688294 21.8357 1.84546 22.8174 3.56273C23.6711 3.18856 24.6152 2.97953 25.6076 2.97953C29.4171 2.97953 32.5059 6.0399 32.5059 9.81512C32.5059 13.5903 29.4171 16.6507 25.6076 16.6507C25.142 16.6507 24.6881 16.6045 24.2484 16.5179C23.3842 18.0319 21.7369 19.0551 19.8462 19.0551C19.0549 19.0551 18.306 18.8761 17.6405 18.5562C16.7645 20.5807 14.7234 22 12.3436 22C9.96383 22 7.75454 20.4606 6.94442 18.301C6.59052 18.3749 6.2225 18.413 5.84625 18.413C2.89739 18.413 0.505859 16.0398 0.505859 13.1122C0.505859 11.1501 1.58052 9.43748 3.17605 8.52052C2.84684 7.7768 2.66459 6.95801 2.66459 6.09648C2.66577 2.73008 5.44766 0 8.88093 0C10.8962 0 12.6869 0.941207 13.8227 2.39979Z" fill="#0D9DDA"/>
<path d="M37.5299 14.6365C37.4634 14.8127 37.5534 14.8479 37.5769 14.8792C37.7766 15.0241 37.9801 15.1298 38.1837 15.2472C39.2681 15.8227 40.2977 15.991 41.3703 15.991C43.5547 15.991 44.9131 14.8283 44.9131 12.9571V12.9219C44.9131 11.1916 43.3825 10.5613 41.9458 10.1072L41.7578 10.0485C40.6735 9.69613 39.7378 9.39078 39.7378 8.6783V8.64307C39.7378 8.03237 40.2859 7.58217 41.1315 7.58217C42.0749 7.58217 43.1867 7.89536 43.907 8.29074C43.907 8.29074 44.1184 8.42776 44.1967 8.22419C44.2398 8.11458 44.6039 7.13198 44.6391 7.02628C44.6822 6.91276 44.6078 6.82663 44.5334 6.77966C43.7113 6.27857 42.576 5.93799 41.4016 5.93799H41.1824C39.182 5.93799 37.7844 7.14764 37.7844 8.87795V8.91318C37.7844 10.7374 39.3268 11.3325 40.7674 11.7435L40.9984 11.814C42.0515 12.135 42.9558 12.4169 42.9558 13.1528V13.1881C42.9558 13.8653 42.3646 14.3664 41.4173 14.3664C41.0493 14.3664 39.8709 14.3586 38.6026 13.5561C38.4499 13.466 38.3599 13.4034 38.2424 13.329C38.1798 13.2899 38.0232 13.2233 37.9566 13.4269L37.526 14.6248L37.5299 14.6365Z" fill="#014486"/>
<path d="M69.5251 14.6365C69.4585 14.8127 69.5485 14.8479 69.572 14.8792C69.7717 15.0241 69.9752 15.1298 70.1788 15.2472C71.2671 15.8227 72.2928 15.991 73.3654 15.991C75.5498 15.991 76.9082 14.8283 76.9082 12.9571V12.9219C76.9082 11.1916 75.3776 10.5613 73.9409 10.1072L73.753 10.0485C72.6686 9.69613 71.733 9.39078 71.733 8.6783V8.64307C71.733 8.03237 72.281 7.58217 73.1266 7.58217C74.0661 7.58217 75.1818 7.89536 75.9022 8.29074C75.9022 8.29074 76.1135 8.42776 76.1918 8.22419C76.2349 8.11458 76.599 7.13198 76.6342 7.02628C76.6773 6.91276 76.6029 6.82663 76.5285 6.77966C75.7064 6.27857 74.5711 5.93799 73.3967 5.93799H73.1775C71.1771 5.93799 69.7795 7.14764 69.7795 8.87795V8.91318C69.7795 10.7374 71.3219 11.3325 72.7625 11.7435L72.9935 11.814C74.0466 12.135 74.9509 12.4169 74.9509 13.1528V13.1881C74.9509 13.8653 74.3597 14.3664 73.4124 14.3664C73.0444 14.3664 71.8661 14.3586 70.5977 13.5561C70.445 13.466 70.355 13.4034 70.2375 13.329C70.1984 13.3055 70.0144 13.2311 69.9518 13.4269L69.5211 14.6248L69.5251 14.6365Z" fill="#014486"/>
<path d="M93.1935 9.01098C93.0135 8.4042 92.7355 7.8718 92.3636 7.42552C91.9917 6.97924 91.5219 6.61908 90.9621 6.36071C90.4062 6.09842 89.7486 5.96924 89.0087 5.96924C88.2688 5.96924 87.6111 6.10234 87.0513 6.36071C86.4954 6.61908 86.0217 6.97924 85.6498 7.42552C85.2779 7.8718 85 8.4042 84.8199 9.01098C84.6398 9.61385 84.5498 10.2715 84.5498 10.9723C84.5498 11.673 84.6398 12.3307 84.8199 12.9335C85 13.5403 85.2779 14.0727 85.6498 14.519C86.0217 14.9653 86.4954 15.3215 87.0513 15.576C87.6111 15.8304 88.2688 15.9596 89.0087 15.9596C89.7486 15.9596 90.4062 15.8304 90.9621 15.576C91.518 15.3215 91.9917 14.9653 92.3636 14.519C92.7355 14.0727 93.0135 13.5403 93.1935 12.9335C93.3736 12.3307 93.4637 11.673 93.4637 10.9723C93.4637 10.2715 93.3736 9.61385 93.1935 9.01098ZM91.3693 10.9723C91.3693 12.0292 91.1735 12.8631 90.786 13.4542C90.4023 14.0375 89.819 14.3194 89.0087 14.3194C88.1983 14.3194 87.619 14.0375 87.2392 13.4542C86.8556 12.867 86.6638 12.0292 86.6638 10.9723C86.6638 9.91529 86.8595 9.08537 87.2392 8.50207C87.619 7.92269 88.1983 7.64474 89.0087 7.64474C89.819 7.64474 90.3984 7.9266 90.786 8.50207C91.1735 9.08537 91.3693 9.91529 91.3693 10.9723Z" fill="#014486"/>
<path fill-rule="evenodd" clip-rule="evenodd" d="M108.171 14.0341C108.113 13.8579 107.937 13.9245 107.937 13.9245C107.67 14.0263 107.389 14.1202 107.087 14.1672C106.782 14.2142 106.445 14.2377 106.089 14.2377C105.208 14.2377 104.503 13.9754 104.002 13.4547C103.497 12.9341 103.215 12.0963 103.219 10.961C103.219 9.92755 103.474 9.15243 103.92 8.55739C104.362 7.97018 105.044 7.66483 105.944 7.66483C106.696 7.66483 107.271 7.75096 107.874 7.94278C107.874 7.94278 108.015 8.00541 108.085 7.81751C108.246 7.37514 108.363 7.05805 108.536 6.57262C108.583 6.43169 108.465 6.37297 108.422 6.35731C108.187 6.26336 107.627 6.1146 107.205 6.04805C106.809 5.98932 106.351 5.95801 105.834 5.95801C105.067 5.95801 104.386 6.08719 103.799 6.34948C103.215 6.60785 102.722 6.96801 102.331 7.41429C101.939 7.86057 101.642 8.39297 101.442 8.99975C101.242 9.60262 101.145 10.2642 101.145 10.965C101.145 12.48 101.552 13.7014 102.358 14.5978C103.165 15.4982 104.378 15.9523 105.96 15.9523C106.895 15.9523 107.854 15.7644 108.543 15.4904C108.543 15.4904 108.676 15.4277 108.618 15.2751L108.171 14.038V14.0341Z" fill="#014486"/>
<path fill-rule="evenodd" clip-rule="evenodd" d="M117.507 8.66649C117.351 8.08319 116.971 7.49207 116.716 7.22195C116.317 6.79525 115.93 6.49381 115.542 6.32939C115.037 6.11408 114.434 5.96924 113.773 5.96924C113.001 5.96924 112.301 6.09843 111.733 6.36463C111.165 6.63083 110.688 6.9949 110.312 7.44901C109.936 7.90312 109.654 8.43943 109.474 9.05405C109.294 9.66083 109.204 10.3263 109.204 11.0232C109.204 11.72 109.298 12.3972 109.482 12.9962C109.67 13.5991 109.971 14.1275 110.379 14.566C110.786 15.0084 111.306 15.3528 111.933 15.5956C112.555 15.8344 113.307 15.9596 114.172 15.9596C115.957 15.9557 116.897 15.5564 117.284 15.3411C117.355 15.302 117.417 15.2354 117.335 15.0475L116.932 13.9161C116.869 13.7478 116.701 13.8065 116.701 13.8065C116.258 13.9709 115.632 14.2646 114.164 14.2646C113.205 14.2646 112.496 13.9788 112.05 13.5364C111.596 13.0862 111.369 12.4207 111.334 11.4812H117.507C117.507 11.4812 117.672 11.4812 117.687 11.3246C117.695 11.258 117.899 10.0562 117.503 8.66649H117.507ZM111.365 9.95835C111.451 9.37114 111.612 8.8818 111.862 8.50207C112.242 7.92269 112.817 7.6056 113.628 7.6056C114.438 7.6056 114.974 7.92269 115.358 8.50207C115.613 8.8818 115.722 9.39071 115.765 9.95835H111.361H111.365Z" fill="#014486"/>
<path fill-rule="evenodd" clip-rule="evenodd" d="M68.0492 8.66649C67.8927 8.08319 67.5129 7.49207 67.2585 7.22195C66.8592 6.79525 66.4716 6.49381 66.084 6.32939C65.579 6.11408 64.9762 5.96924 64.3146 5.96924C63.5434 5.96924 62.8426 6.09843 62.275 6.36463C61.7074 6.63083 61.2298 6.9949 60.854 7.44901C60.4781 7.90312 60.1963 8.43943 60.0162 9.05405C59.8361 9.66083 59.7461 10.3263 59.7461 11.0232C59.7461 11.72 59.84 12.3972 60.028 12.9962C60.2159 13.5991 60.5173 14.1275 60.9205 14.566C61.3276 15.0084 61.8483 15.3528 62.4747 15.5956C63.0971 15.8344 63.8487 15.9596 64.7178 15.9596C66.5029 15.9557 67.4425 15.5564 67.83 15.3411C67.8966 15.302 67.9631 15.2354 67.8809 15.0475L67.4777 13.9161C67.4151 13.7478 67.2467 13.8065 67.2467 13.8065C66.8044 13.9709 66.178 14.2646 64.71 14.2646C63.7548 14.2646 63.0423 13.9788 62.596 13.5364C62.1419 13.0862 61.9149 12.4207 61.8796 11.4812H68.0532C68.0532 11.4812 68.2176 11.4812 68.2332 11.3246C68.2411 11.258 68.4446 10.0562 68.0492 8.66649ZM61.907 9.95835C61.9932 9.37114 62.1537 8.8818 62.4042 8.50207C62.7839 7.92269 63.3594 7.6056 64.1697 7.6056C64.9801 7.6056 65.5164 7.92269 65.9001 8.50207C66.1545 8.8818 66.2641 9.39071 66.3072 9.95835H61.9031H61.907Z" fill="#014486"/>
<path d="M51.0157 9.66134C50.7652 9.64176 50.4402 9.63393 50.0527 9.63393C49.5242 9.63393 49.0114 9.70048 48.5338 9.82967C48.0523 9.95886 47.6177 10.1624 47.2458 10.4286C46.87 10.6987 46.5686 11.0393 46.3493 11.4465C46.1301 11.8536 46.0205 12.3312 46.0205 12.8714C46.0205 13.4116 46.1145 13.8932 46.3024 14.2807C46.4903 14.6722 46.7604 14.9971 47.1088 15.2477C47.4533 15.4982 47.8761 15.6822 48.3654 15.7918C48.8509 15.9014 49.3989 15.9601 50.0018 15.9601C50.636 15.9601 51.2662 15.9053 51.8769 15.8035C52.4837 15.7018 53.2275 15.5491 53.4311 15.5021C53.6386 15.4551 53.8656 15.3925 53.8656 15.3925C54.0183 15.3534 54.0066 15.1889 54.0066 15.1889V9.53998C54.0066 8.30292 53.6738 7.38296 53.02 6.81533C52.3702 6.24769 51.4189 5.96191 50.1819 5.96191C49.7199 5.96191 48.9722 6.02455 48.5259 6.11459C48.5259 6.11459 47.1793 6.37688 46.6234 6.81141C46.6234 6.81141 46.502 6.88579 46.5686 7.05804L47.007 8.23246C47.0618 8.38513 47.2106 8.33424 47.2106 8.33424C47.2106 8.33424 47.2576 8.31467 47.3124 8.28335C48.4985 7.63742 50.0018 7.65699 50.0018 7.65699C50.6673 7.65699 51.184 7.7901 51.5285 8.0563C51.8652 8.31467 52.0375 8.70614 52.0375 9.52824V9.79052C51.509 9.71223 51.0196 9.66917 51.0196 9.66917L51.0157 9.66134ZM48.5573 14.0028C48.3145 13.811 48.2793 13.7601 48.201 13.6348C48.0797 13.4469 48.017 13.1768 48.017 12.8323C48.017 12.292 48.1971 11.9006 48.569 11.6383C48.569 11.6383 49.1014 11.1763 50.3619 11.192C51.2467 11.2037 52.0375 11.3329 52.0375 11.3329V14.1398C52.0375 14.1398 51.2545 14.3081 50.3698 14.3629C49.1131 14.4373 48.5573 14.0028 48.5612 14.0028H48.5573Z" fill="#014486"/>
<path fill-rule="evenodd" clip-rule="evenodd" d="M100.824 6.47789C100.871 6.33696 100.773 6.27041 100.73 6.25475C100.624 6.2156 100.1 6.10599 99.6964 6.07859C98.9213 6.03161 98.4907 6.1608 98.1031 6.33304C97.7195 6.50529 97.2967 6.78324 97.0579 7.10425V6.35262C97.0579 6.25083 96.9835 6.16471 96.8817 6.16471H95.3002C95.1984 6.16471 95.124 6.24692 95.124 6.35262V15.564C95.124 15.6658 95.2062 15.7519 95.3119 15.7519H96.9365C97.0383 15.7519 97.1245 15.6697 97.1245 15.564V10.9642C97.1245 10.3456 97.1949 9.73103 97.328 9.34347C97.4611 8.95983 97.6451 8.65448 97.8683 8.43525C98.0914 8.21603 98.3498 8.06335 98.6316 7.97723C98.9174 7.89111 99.2345 7.85979 99.4615 7.85979C99.7826 7.85979 100.139 7.942 100.139 7.942C100.256 7.95374 100.323 7.88328 100.366 7.77366C100.472 7.4918 100.773 6.64622 100.832 6.47789H100.824Z" fill="#014486"/>
<path fill-rule="evenodd" clip-rule="evenodd" d="M85.5948 2.2114C85.399 2.14876 85.2189 2.10961 84.9841 2.06655C84.7453 2.02349 84.4634 2 84.1463 2C83.0306 2 82.1498 2.31709 81.5313 2.93954C80.9167 3.55806 80.4978 4.50151 80.2903 5.73857L80.2159 6.15744H78.8144C78.8144 6.15744 78.6422 6.14961 78.607 6.33752L78.376 7.62156C78.3603 7.74291 78.4112 7.8212 78.5796 7.8212H79.9419L78.5561 15.5489C78.4465 16.1713 78.3251 16.6842 78.1881 17.0717C78.0511 17.4554 77.918 17.7411 77.7575 17.9486C77.6009 18.1483 77.4482 18.297 77.1937 18.3871C76.9823 18.4575 76.7357 18.4928 76.4656 18.4928C76.3168 18.4928 76.1172 18.4693 75.9684 18.438C75.8236 18.4106 75.7453 18.3753 75.6357 18.3283C75.6357 18.3283 75.4752 18.2657 75.4125 18.4262C75.3616 18.5554 74.9976 19.5576 74.9545 19.6828C74.9115 19.8042 74.9741 19.9021 75.0485 19.9295C75.2285 19.996 75.3656 20.0352 75.6122 20.0939C75.9567 20.1761 76.2464 20.18 76.5165 20.18C77.0841 20.18 77.6048 20.1017 78.0315 19.9451C78.466 19.7885 78.8418 19.5184 79.1746 19.1504C79.5348 18.7511 79.7618 18.3362 79.9771 17.7685C80.1924 17.2048 80.3725 16.508 80.5213 15.6937L81.911 7.8212H83.9467C83.9467 7.8212 84.1189 7.82903 84.1541 7.64113L84.3851 6.3571C84.4008 6.23574 84.3499 6.15744 84.1815 6.15744H82.2085C82.2203 6.11438 82.3064 5.41756 82.5334 4.7638C82.6313 4.48585 82.8114 4.2588 82.968 4.10612C83.1206 3.95345 83.2929 3.84775 83.4847 3.78512C83.6805 3.72248 83.9036 3.69116 84.1463 3.69116C84.3303 3.69116 84.5143 3.71465 84.6552 3.74205C84.847 3.7812 84.9214 3.80469 84.9723 3.82035C85.172 3.88299 85.1994 3.82035 85.2385 3.7264L85.7122 2.43062C85.7592 2.28969 85.6417 2.23097 85.5987 2.21531L85.5948 2.2114Z" fill="#014486"/>
<path fill-rule="evenodd" clip-rule="evenodd" d="M58.0072 15.5685C58.0072 15.6703 57.9329 15.7564 57.8311 15.7564H56.1947C56.0929 15.7564 56.0186 15.6742 56.0186 15.5685V2.38762C56.0186 2.28583 56.0929 2.19971 56.1947 2.19971H57.8311C57.9329 2.19971 58.0072 2.28192 58.0072 2.38762V15.5685Z" fill="#014486"/>
</svg>
